<svg xmlns="http://www.w3.org/2000/svg" width="64" height="64" viewBox="0 0 64 64" fill="none">
  <rect width="64" height="64" rx="12" fill="#1a1a1a"/>
  
  <!-- Main chat bubble -->
  <path d="M12 20c0-2 2-4 4-4h20c2 0 4 2 4 4v12c0 2-2 4-4 4H20l-6 4v-4c-2 0-4-2-4-4V20z" 
        fill="#8b5cf6" stroke="#a855f7" stroke-width="1"/>
  
  <!-- Second chat bubble (smaller, overlapping) -->
  <path d="M28 32c0-1.5 1.5-3 3-3h12c1.5 0 3 1.5 3 3v8c0 1.5-1.5 3-3 3H35l-4 3v-3c-1.5 0-3-1.5-3-3v-8z" 
        fill="#06b6d4" stroke="#0891b2" stroke-width="1"/>
  
  <!-- Text lines in main bubble -->
  <rect x="16" y="24" width="12" height="1.5" rx="0.75" fill="#c4b5fd"/>
  <rect x="16" y="27" width="16" height="1.5" rx="0.75" fill="#c4b5fd"/>
  <rect x="16" y="30" width="8" height="1.5" rx="0.75" fill="#c4b5fd"/>
  
  <!-- Text lines in second bubble -->
  <rect x="32" y="36" width="8" height="1" rx="0.5" fill="#a5f3fc"/>
  <rect x="32" y="38.5" width="6" height="1" rx="0.5" fill="#a5f3fc"/>
  
  <!-- Small dots indicating activity -->
  <circle cx="18" cy="50" r="1.5" fill="#10b981" opacity="0.8"/>
  <circle cx="23" cy="52" r="1" fill="#10b981" opacity="0.6"/>
  <circle cx="27" cy="50.5" r="0.8" fill="#10b981" opacity="0.4"/>
  
  <text x="32" y="58" font-family="monospace" font-size="7" fill="#9ca3af" text-anchor="middle">BLOG</text>
</svg>